<mxfile host="Electron" modified="2023-08-03T15:47:43.493Z" agent="Mozilla/5.0 (Macintosh; Intel Mac OS X 10_15_7) AppleWebKit/537.36 (KHTML, like Gecko) draw.io/21.6.5 Chrome/114.0.5735.243 Electron/25.3.1 Safari/537.36" etag="Rylp07mZf2d5pWESaTzn" version="21.6.5" type="device">
  <diagram name="Page-1" id="9WPo-GXbmbGOBKC8iK3H">
    <mxGraphModel dx="1026" dy="743" grid="1" gridSize="10" guides="1" tooltips="1" connect="1" arrows="1" fold="1" page="1" pageScale="1" pageWidth="850" pageHeight="1100" math="0" shadow="0">
      <root>
        <mxCell id="0" />
        <mxCell id="1" parent="0" />
        <mxCell id="zZsu45fDzfgX8XuZhd_p-1" value="" style="rounded=0;whiteSpace=wrap;html=1;" parent="1" vertex="1">
          <mxGeometry x="80" y="80" width="500" height="250" as="geometry" />
        </mxCell>
        <mxCell id="zZsu45fDzfgX8XuZhd_p-2" value="Title&amp;nbsp;" style="text;html=1;strokeColor=none;fillColor=none;align=center;verticalAlign=middle;whiteSpace=wrap;rounded=0;" parent="1" vertex="1">
          <mxGeometry x="170" y="130" width="310" height="30" as="geometry" />
        </mxCell>
        <mxCell id="zZsu45fDzfgX8XuZhd_p-3" value="Upcoming (Soon)" style="text;html=1;strokeColor=none;fillColor=none;align=center;verticalAlign=middle;whiteSpace=wrap;rounded=0;" parent="1" vertex="1">
          <mxGeometry x="232.5" y="200" width="195" height="30" as="geometry" />
        </mxCell>
        <mxCell id="zZsu45fDzfgX8XuZhd_p-4" value="Classes" style="text;html=1;strokeColor=none;fillColor=none;align=center;verticalAlign=middle;whiteSpace=wrap;rounded=0;" parent="1" vertex="1">
          <mxGeometry x="120" y="90" width="60" height="30" as="geometry" />
        </mxCell>
        <mxCell id="zZsu45fDzfgX8XuZhd_p-5" value="About Us" style="text;html=1;strokeColor=none;fillColor=none;align=center;verticalAlign=middle;whiteSpace=wrap;rounded=0;" parent="1" vertex="1">
          <mxGeometry x="200" y="90" width="60" height="30" as="geometry" />
        </mxCell>
        <mxCell id="zZsu45fDzfgX8XuZhd_p-7" value="Contact Us" style="text;html=1;strokeColor=none;fillColor=none;align=center;verticalAlign=middle;whiteSpace=wrap;rounded=0;" parent="1" vertex="1">
          <mxGeometry x="280" y="90" width="90" height="30" as="geometry" />
        </mxCell>
        <mxCell id="zZsu45fDzfgX8XuZhd_p-9" value="" style="rounded=0;whiteSpace=wrap;html=1;" parent="1" vertex="1">
          <mxGeometry x="680" y="70" width="390" height="430" as="geometry" />
        </mxCell>
        <mxCell id="zZsu45fDzfgX8XuZhd_p-11" value="" style="endArrow=classic;startArrow=classic;html=1;rounded=0;entryX=0;entryY=0.274;entryDx=0;entryDy=0;entryPerimeter=0;" parent="1" source="zZsu45fDzfgX8XuZhd_p-4" target="zZsu45fDzfgX8XuZhd_p-9" edge="1">
          <mxGeometry width="50" height="50" relative="1" as="geometry">
            <mxPoint x="550" y="10" as="sourcePoint" />
            <mxPoint x="678" y="262" as="targetPoint" />
            <Array as="points">
              <mxPoint x="150" y="10" />
              <mxPoint x="500" y="10" />
              <mxPoint x="620" y="10" />
              <mxPoint x="620" y="186" />
            </Array>
          </mxGeometry>
        </mxCell>
        <mxCell id="zZsu45fDzfgX8XuZhd_p-12" value="Classes" style="text;html=1;strokeColor=none;fillColor=none;align=center;verticalAlign=middle;whiteSpace=wrap;rounded=0;" parent="1" vertex="1">
          <mxGeometry x="740" y="100" width="290" height="30" as="geometry" />
        </mxCell>
        <mxCell id="zZsu45fDzfgX8XuZhd_p-13" value="" style="rounded=0;whiteSpace=wrap;html=1;" parent="1" vertex="1">
          <mxGeometry x="690" y="140" width="50" height="320" as="geometry" />
        </mxCell>
        <mxCell id="zZsu45fDzfgX8XuZhd_p-14" value="Topic" style="text;html=1;strokeColor=none;fillColor=none;align=center;verticalAlign=middle;whiteSpace=wrap;rounded=0;" parent="1" vertex="1">
          <mxGeometry x="685" y="150" width="60" height="30" as="geometry" />
        </mxCell>
        <mxCell id="zZsu45fDzfgX8XuZhd_p-15" value="Time Frame" style="text;html=1;strokeColor=none;fillColor=none;align=center;verticalAlign=middle;whiteSpace=wrap;rounded=0;" parent="1" vertex="1">
          <mxGeometry x="685" y="190" width="60" height="30" as="geometry" />
        </mxCell>
        <mxCell id="zZsu45fDzfgX8XuZhd_p-16" value="Lenght&amp;nbsp;" style="text;html=1;strokeColor=none;fillColor=none;align=center;verticalAlign=middle;whiteSpace=wrap;rounded=0;" parent="1" vertex="1">
          <mxGeometry x="685" y="230" width="60" height="30" as="geometry" />
        </mxCell>
        <mxCell id="zZsu45fDzfgX8XuZhd_p-17" value="" style="rounded=0;whiteSpace=wrap;html=1;" parent="1" vertex="1">
          <mxGeometry x="750" y="150" width="300" height="300" as="geometry" />
        </mxCell>
        <mxCell id="zZsu45fDzfgX8XuZhd_p-18" value="Text" style="text;html=1;strokeColor=none;fillColor=none;align=center;verticalAlign=middle;whiteSpace=wrap;rounded=0;" parent="1" vertex="1">
          <mxGeometry x="860" y="190" width="60" height="30" as="geometry" />
        </mxCell>
      </root>
    </mxGraphModel>
  </diagram>
</mxfile>
